<svg width="1232" height="1080" viewBox="0 0 1232 1080" fill="none" xmlns="http://www.w3.org/2000/svg">
<g opacity="0.5">
<path opacity="0.5" d="M33.2363 8.8018C33.2363 10.9598 31.4979 12.7214 29.3683 12.7214C27.2387 12.7214 25.5002 10.9598 25.5002 8.8018C25.5002 6.64382 27.2387 4.8822 29.3683 4.8822C31.4979 4.8822 33.2363 6.64382 33.2363 8.8018Z" fill="white"/>
<path opacity="0.5" d="M62.6376 12.7214C64.7738 12.7214 66.5056 10.9665 66.5056 8.8018C66.5056 6.63706 64.7738 4.8822 62.6376 4.8822C60.5013 4.8822 58.7695 6.63706 58.7695 8.8018C58.7695 10.9665 60.5013 12.7214 62.6376 12.7214Z" fill="white"/>
<path opacity="0.5" d="M95.8854 12.7214C98.0216 12.7214 99.7534 10.9665 99.7534 8.8018C99.7534 6.63706 98.0216 4.8822 95.8854 4.8822C93.7491 4.8822 92.0173 6.63706 92.0173 8.8018C92.0173 10.9665 93.7491 12.7214 95.8854 12.7214Z" fill="white"/>
<path opacity="0.5" d="M133.023 8.8018C133.023 10.9598 131.284 12.7214 129.155 12.7214C127.025 12.7214 125.287 10.9598 125.287 8.8018C125.287 6.64382 127.025 4.8822 129.155 4.8822C131.284 4.8822 133.023 6.64382 133.023 8.8018Z" fill="white"/>
<path opacity="0.5" d="M162.402 12.7214C164.539 12.7214 166.27 10.9665 166.27 8.8018C166.27 6.63706 164.539 4.8822 162.402 4.8822C160.266 4.8822 158.534 6.63706 158.534 8.8018C158.534 10.9665 160.266 12.7214 162.402 12.7214Z" fill="white"/>
<path opacity="0.5" d="M195.672 12.7214C197.808 12.7214 199.54 10.9665 199.54 8.8018C199.54 6.63706 197.808 4.8822 195.672 4.8822C193.535 4.8822 191.804 6.63706 191.804 8.8018C191.804 10.9665 193.535 12.7214 195.672 12.7214Z" fill="white"/>
<path opacity="0.5" d="M228.919 12.7214C231.056 12.7214 232.787 10.9665 232.787 8.8018C232.787 6.63706 231.056 4.8822 228.919 4.8822C226.783 4.8822 225.051 6.63706 225.051 8.8018C225.051 10.9665 226.783 12.7214 228.919 12.7214Z" fill="white"/>
<path opacity="0.5" d="M262.189 12.7214C264.325 12.7214 266.057 10.9665 266.057 8.8018C266.057 6.63706 264.325 4.8822 262.189 4.8822C260.053 4.8822 258.321 6.63706 258.321 8.8018C258.321 10.9665 260.053 12.7214 262.189 12.7214Z" fill="white"/>
<path opacity="0.5" d="M33.2363 42.4927C33.2363 44.6507 31.4979 46.4123 29.3683 46.4123C27.2387 46.4123 25.5002 44.6507 25.5002 42.4927C25.5002 40.3347 27.2387 38.5731 29.3683 38.5731C31.4979 38.5951 33.2363 40.3347 33.2363 42.4927Z" fill="white"/>
<path opacity="0.5" d="M62.6376 46.4123C64.7738 46.4123 66.5056 44.6574 66.5056 42.4927C66.5056 40.328 64.7738 38.5731 62.6376 38.5731C60.5013 38.5731 58.7695 40.328 58.7695 42.4927C58.7695 44.6574 60.5013 46.4123 62.6376 46.4123Z" fill="white"/>
<path opacity="0.5" d="M95.8854 46.4123C98.0216 46.4123 99.7534 44.6574 99.7534 42.4927C99.7534 40.328 98.0216 38.5731 95.8854 38.5731C93.7491 38.5731 92.0173 40.328 92.0173 42.4927C92.0173 44.6574 93.7491 46.4123 95.8854 46.4123Z" fill="white"/>
<path opacity="0.5" d="M133.023 42.4927C133.023 44.6507 131.284 46.4123 129.155 46.4123C127.025 46.4123 125.287 44.6507 125.287 42.4927C125.287 40.3347 127.025 38.5731 129.155 38.5731C131.284 38.5951 133.023 40.3347 133.023 42.4927Z" fill="white"/>
<path opacity="0.5" d="M162.402 46.4123C164.539 46.4123 166.27 44.6574 166.27 42.4927C166.27 40.328 164.539 38.5731 162.402 38.5731C160.266 38.5731 158.534 40.328 158.534 42.4927C158.534 44.6574 160.266 46.4123 162.402 46.4123Z" fill="white"/>
<path opacity="0.5" d="M195.672 46.4123C197.808 46.4123 199.54 44.6574 199.54 42.4927C199.54 40.328 197.808 38.5731 195.672 38.5731C193.535 38.5731 191.804 40.328 191.804 42.4927C191.804 44.6574 193.535 46.4123 195.672 46.4123Z" fill="white"/>
<path opacity="0.5" d="M228.919 46.4123C231.056 46.4123 232.787 44.6574 232.787 42.4927C232.787 40.328 231.056 38.5731 228.919 38.5731C226.783 38.5731 225.051 40.328 225.051 42.4927C225.051 44.6574 226.783 46.4123 228.919 46.4123Z" fill="white"/>
<path opacity="0.5" d="M262.189 46.4123C264.325 46.4123 266.057 44.6574 266.057 42.4927C266.057 40.328 264.325 38.5731 262.189 38.5731C260.053 38.5731 258.321 40.328 258.321 42.4927C258.321 44.6574 260.053 46.4123 262.189 46.4123Z" fill="white"/>
<path opacity="0.5" d="M33.2363 76.2056C33.2363 78.3636 31.4979 80.1252 29.3683 80.1252C27.2387 80.1252 25.5002 78.3636 25.5002 76.2056C25.5002 74.0476 27.2387 72.286 29.3683 72.286C31.4979 72.286 33.2363 74.0476 33.2363 76.2056Z" fill="white"/>
<path opacity="0.5" d="M62.6376 80.1252C64.7738 80.1252 66.5056 78.3703 66.5056 76.2056C66.5056 74.0409 64.7738 72.286 62.6376 72.286C60.5013 72.286 58.7695 74.0409 58.7695 76.2056C58.7695 78.3703 60.5013 80.1252 62.6376 80.1252Z" fill="white"/>
<path opacity="0.5" d="M95.8854 80.1252C98.0216 80.1252 99.7534 78.3703 99.7534 76.2056C99.7534 74.0409 98.0216 72.286 95.8854 72.286C93.7491 72.286 92.0173 74.0409 92.0173 76.2056C92.0173 78.3703 93.7491 80.1252 95.8854 80.1252Z" fill="white"/>
<path opacity="0.5" d="M133.023 76.2056C133.023 78.3636 131.284 80.1252 129.155 80.1252C127.025 80.1252 125.287 78.3636 125.287 76.2056C125.287 74.0476 127.025 72.286 129.155 72.286C131.284 72.286 133.023 74.0476 133.023 76.2056Z" fill="white"/>
<path opacity="0.5" d="M162.402 80.1252C164.539 80.1252 166.27 78.3703 166.27 76.2056C166.27 74.0409 164.539 72.286 162.402 72.286C160.266 72.286 158.534 74.0409 158.534 76.2056C158.534 78.3703 160.266 80.1252 162.402 80.1252Z" fill="white"/>
<path opacity="0.5" d="M195.672 80.1252C197.808 80.1252 199.54 78.3703 199.54 76.2056C199.54 74.0409 197.808 72.286 195.672 72.286C193.535 72.286 191.804 74.0409 191.804 76.2056C191.804 78.3703 193.535 80.1252 195.672 80.1252Z" fill="white"/>
<path opacity="0.5" d="M228.919 80.1252C231.056 80.1252 232.787 78.3703 232.787 76.2056C232.787 74.0409 231.056 72.286 228.919 72.286C226.783 72.286 225.051 74.0409 225.051 76.2056C225.051 78.3703 226.783 80.1252 228.919 80.1252Z" fill="white"/>
<path opacity="0.5" d="M262.189 80.1252C264.325 80.1252 266.057 78.3703 266.057 76.2056C266.057 74.0409 264.325 72.286 262.189 72.286C260.053 72.286 258.321 74.0409 258.321 76.2056C258.321 78.3703 260.053 80.1252 262.189 80.1252Z" fill="white"/>
<path opacity="0.5" d="M33.2363 109.919C33.2363 112.077 31.4979 113.838 29.3683 113.838C27.2387 113.838 25.5002 112.077 25.5002 109.919C25.5002 107.761 27.2387 105.999 29.3683 105.999C31.4979 105.999 33.2363 107.739 33.2363 109.919Z" fill="white"/>
<path opacity="0.5" d="M62.6376 113.838C64.7738 113.838 66.5056 112.083 66.5056 109.919C66.5056 107.754 64.7738 105.999 62.6376 105.999C60.5013 105.999 58.7695 107.754 58.7695 109.919C58.7695 112.083 60.5013 113.838 62.6376 113.838Z" fill="white"/>
<path opacity="0.5" d="M95.8854 113.838C98.0216 113.838 99.7534 112.083 99.7534 109.919C99.7534 107.754 98.0216 105.999 95.8854 105.999C93.7491 105.999 92.0173 107.754 92.0173 109.919C92.0173 112.083 93.7491 113.838 95.8854 113.838Z" fill="white"/>
<path opacity="0.5" d="M133.023 109.919C133.023 112.077 131.284 113.838 129.155 113.838C127.025 113.838 125.287 112.077 125.287 109.919C125.287 107.761 127.025 105.999 129.155 105.999C131.284 105.999 133.023 107.739 133.023 109.919Z" fill="white"/>
<path opacity="0.5" d="M162.402 113.838C164.539 113.838 166.27 112.083 166.27 109.919C166.27 107.754 164.539 105.999 162.402 105.999C160.266 105.999 158.534 107.754 158.534 109.919C158.534 112.083 160.266 113.838 162.402 113.838Z" fill="white"/>
<path opacity="0.5" d="M195.672 113.838C197.808 113.838 199.54 112.083 199.54 109.919C199.54 107.754 197.808 105.999 195.672 105.999C193.535 105.999 191.804 107.754 191.804 109.919C191.804 112.083 193.535 113.838 195.672 113.838Z" fill="white"/>
<path opacity="0.5" d="M228.919 113.838C231.056 113.838 232.787 112.083 232.787 109.919C232.787 107.754 231.056 105.999 228.919 105.999C226.783 105.999 225.051 107.754 225.051 109.919C225.051 112.083 226.783 113.838 228.919 113.838Z" fill="white"/>
<path opacity="0.5" d="M262.189 113.838C264.325 113.838 266.057 112.083 266.057 109.919C266.057 107.754 264.325 105.999 262.189 105.999C260.053 105.999 258.321 107.754 258.321 109.919C258.321 112.083 260.053 113.838 262.189 113.838Z" fill="white"/>
</g>
<g opacity="0.5">
<path opacity="0.5" d="M929.619 22.6965C929.619 24.8544 927.881 26.6161 925.751 26.6161C923.622 26.6161 921.883 24.8544 921.883 22.6965C921.883 20.5385 923.622 18.7769 925.751 18.7769C927.881 18.7769 929.619 20.5385 929.619 22.6965Z" fill="white"/>
<path opacity="0.5" d="M962.889 22.6965C962.889 24.8544 961.15 26.6161 959.021 26.6161C956.891 26.6161 955.153 24.8544 955.153 22.6965C955.153 20.5385 956.891 18.7769 959.021 18.7769C961.15 18.7989 962.889 20.5385 962.889 22.6965Z" fill="white"/>
<path opacity="0.5" d="M996.136 22.6965C996.136 24.8544 994.398 26.6161 992.268 26.6161C990.139 26.6161 988.4 24.8544 988.4 22.6965C988.4 20.5385 990.139 18.7769 992.268 18.7769C994.398 18.7769 996.136 20.5385 996.136 22.6965Z" fill="white"/>
<path opacity="0.5" d="M929.619 56.4095C929.619 58.5674 927.881 60.3291 925.751 60.3291C923.622 60.3291 921.883 58.5674 921.883 56.4095C921.883 54.2515 923.622 52.4899 925.751 52.4899C927.881 52.4899 929.619 54.2515 929.619 56.4095Z" fill="white"/>
<path opacity="0.5" d="M962.889 56.4093C962.889 58.5673 961.15 60.3289 959.021 60.3289C956.891 60.3289 955.153 58.5673 955.153 56.4093C955.153 54.2514 956.891 52.4897 959.021 52.4897C961.15 52.4897 962.889 54.2514 962.889 56.4093Z" fill="white"/>
<path opacity="0.5" d="M996.136 56.4093C996.136 58.5673 994.398 60.3289 992.268 60.3289C990.139 60.3289 988.4 58.5673 988.4 56.4093C988.4 54.2514 990.139 52.4897 992.268 52.4897C994.398 52.4897 996.136 54.2514 996.136 56.4093Z" fill="white"/>
<path opacity="0.5" d="M929.619 90.1003C929.619 92.2582 927.881 94.0199 925.751 94.0199C923.622 94.0199 921.883 92.2582 921.883 90.1003C921.883 87.9423 923.622 86.1807 925.751 86.1807C927.881 86.1807 929.619 87.9423 929.619 90.1003Z" fill="white"/>
<path opacity="0.5" d="M962.889 90.1003C962.889 92.2582 961.15 94.0199 959.021 94.0199C956.891 94.0199 955.153 92.2582 955.153 90.1003C955.153 87.9423 956.891 86.1807 959.021 86.1807C961.15 86.2027 962.889 87.9423 962.889 90.1003Z" fill="white"/>
<path opacity="0.5" d="M996.136 90.1003C996.136 92.2582 994.398 94.0199 992.268 94.0199C990.139 94.0199 988.4 92.2582 988.4 90.1003C988.4 87.9423 990.139 86.1807 992.268 86.1807C994.398 86.1807 996.136 87.9423 996.136 90.1003Z" fill="white"/>
</g>
<g opacity="0.5">
<path opacity="0.5" d="M619.09 322.149C619.09 324.307 617.352 326.069 615.222 326.069C613.093 326.069 611.354 324.307 611.354 322.149C611.354 319.991 613.093 318.23 615.222 318.23C617.374 318.23 619.09 319.969 619.09 322.149Z" fill="white"/>
<path opacity="0.5" d="M648.492 326.069C650.628 326.069 652.36 324.314 652.36 322.149C652.36 319.985 650.628 318.23 648.492 318.23C646.356 318.23 644.624 319.985 644.624 322.149C644.624 324.314 646.356 326.069 648.492 326.069Z" fill="white"/>
<path opacity="0.5" d="M681.739 326.069C683.876 326.069 685.607 324.314 685.607 322.149C685.607 319.985 683.876 318.23 681.739 318.23C679.603 318.23 677.871 319.985 677.871 322.149C677.871 324.314 679.603 326.069 681.739 326.069Z" fill="white"/>
<path opacity="0.5" d="M619.09 355.84C619.09 357.998 617.352 359.76 615.222 359.76C613.093 359.76 611.354 357.998 611.354 355.84C611.354 353.682 613.093 351.921 615.222 351.921C617.374 351.921 619.09 353.682 619.09 355.84Z" fill="white"/>
<path opacity="0.5" d="M648.492 359.76C650.628 359.76 652.36 358.005 652.36 355.84C652.36 353.676 650.628 351.921 648.492 351.921C646.356 351.921 644.624 353.676 644.624 355.84C644.624 358.005 646.356 359.76 648.492 359.76Z" fill="white"/>
<path opacity="0.5" d="M681.739 359.76C683.876 359.76 685.607 358.005 685.607 355.84C685.607 353.676 683.876 351.921 681.739 351.921C679.603 351.921 677.871 353.676 677.871 355.84C677.871 358.005 679.603 359.76 681.739 359.76Z" fill="white"/>
<path opacity="0.5" d="M619.09 389.553C619.09 391.711 617.352 393.473 615.222 393.473C613.093 393.473 611.354 391.711 611.354 389.553C611.354 387.395 613.093 385.634 615.222 385.634C617.374 385.634 619.09 387.395 619.09 389.553Z" fill="white"/>
<path opacity="0.5" d="M652.36 389.553C652.36 391.711 650.621 393.473 648.492 393.473C646.362 393.473 644.624 391.711 644.624 389.553C644.624 387.395 646.362 385.634 648.492 385.634C650.621 385.634 652.36 387.395 652.36 389.553Z" fill="white"/>
<path opacity="0.5" d="M685.607 389.553C685.607 391.711 683.869 393.473 681.739 393.473C679.61 393.473 677.871 391.711 677.871 389.553C677.871 387.395 679.61 385.634 681.739 385.634C683.891 385.634 685.607 387.395 685.607 389.553Z" fill="white"/>
</g>
<path opacity="0.5" d="M1214.35 -134.858L1074.24 7.12826" stroke="white" strokeWidth="2.1221" strokeMiterlimit="10"/>
<path opacity="0.5" d="M912.213 986.852L772.095 1128.84" stroke="white" strokeWidth="2.1221" strokeMiterlimit="10"/>
<path opacity="0.5" d="M903.108 977.625L762.99 1119.61" stroke="white" strokeWidth="2.1221" strokeMiterlimit="10"/>
<path opacity="0.5" d="M894.003 968.399L753.885 1110.38" stroke="white" strokeWidth="2.1221" strokeMiterlimit="10"/>
<path opacity="0.5" d="M884.898 959.172L744.78 1101.16" stroke="white" strokeWidth="2.1221" strokeMiterlimit="10"/>
<path opacity="0.5" d="M875.793 949.946L735.675 1091.93" stroke="white" strokeWidth="2.1221" strokeMiterlimit="10"/>
<path opacity="0.5" d="M866.688 940.719L726.57 1082.71" stroke="white" strokeWidth="2.1221" strokeMiterlimit="10"/>
<path opacity="0.5" d="M857.583 931.493L717.465 1073.48" stroke="white" strokeWidth="2.1221" strokeMiterlimit="10"/>
<path opacity="0.5" d="M848.478 922.266L708.359 1064.25" stroke="white" strokeWidth="2.1221" strokeMiterlimit="10"/>
<path opacity="0.5" d="M839.373 913.04L699.254 1055.03" stroke="white" strokeWidth="2.1221" strokeMiterlimit="10"/>
<path opacity="0.5" d="M830.267 903.813L690.149 1045.8" stroke="white" strokeWidth="2.1221" strokeMiterlimit="10"/>
<path opacity="0.5" d="M821.162 894.587L681.044 1036.57" stroke="white" strokeWidth="2.1221" strokeMiterlimit="10"/>
<path opacity="0.5" d="M812.057 885.36L671.961 1027.35" stroke="white" strokeWidth="2.1221" strokeMiterlimit="10"/>
<path opacity="0.5" d="M802.974 876.156L662.856 1018.12" stroke="white" strokeWidth="2.1221" strokeMiterlimit="10"/>
<path opacity="0.5" d="M793.869 866.93L653.751 1008.89" stroke="white" strokeWidth="2.1221" strokeMiterlimit="10"/>
<path opacity="0.5" d="M784.764 857.703L644.646 999.689" stroke="white" strokeWidth="2.1221" strokeMiterlimit="10"/>
<path opacity="0.8" d="M823.723 69.8249C943.271 -51.4614 943.271 -248.105 823.723 -369.392C704.174 -490.678 510.348 -490.678 390.8 -369.392C271.252 -248.105 271.252 -51.4615 390.8 69.8249C510.348 191.111 704.174 191.111 823.723 69.8249Z" stroke="white" strokeWidth="0.5" strokeMiterlimit="10"/>
<path opacity="0.8" d="M813.211 58.6432C926.808 -56.4676 926.808 -243.099 813.211 -358.21C699.615 -473.321 515.439 -473.321 401.843 -358.21C288.246 -243.099 288.246 -56.4677 401.843 58.6432C515.439 173.754 699.615 173.754 813.211 58.6432Z" stroke="white" strokeWidth="0.6562" strokeMiterlimit="10"/>
<path opacity="0.8" d="M607.53 129.318C759.648 129.318 882.964 4.35828 882.964 -149.788C882.964 -303.934 759.648 -428.894 607.53 -428.894C455.412 -428.894 332.096 -303.934 332.096 -149.788C332.096 4.35828 455.412 129.318 607.53 129.318Z" stroke="white" strokeWidth="0.8125" strokeMiterlimit="10"/>
<path opacity="0.8" d="M607.53 113.684C751.127 113.684 867.535 -4.27631 867.535 -149.788C867.535 -295.299 751.127 -413.26 607.53 -413.26C463.933 -413.26 347.524 -295.299 347.524 -149.788C347.524 -4.27631 463.933 113.684 607.53 113.684Z" stroke="white" strokeWidth="0.9688" strokeMiterlimit="10"/>
<path opacity="0.8" d="M780.467 25.4624C875.979 -71.3232 875.979 -228.244 780.467 -325.029C684.955 -421.815 530.099 -421.815 434.587 -325.029C339.074 -228.244 339.074 -71.3232 434.587 25.4624C530.099 122.248 684.955 122.248 780.467 25.4624Z" stroke="white" strokeWidth="1.125" strokeMiterlimit="10"/>
<path opacity="0.8" d="M769.558 14.4075C859.045 -76.2726 859.045 -223.294 769.558 -313.974C680.071 -404.654 534.983 -404.654 445.496 -313.974C356.009 -223.294 356.009 -76.2727 445.496 14.4074C534.984 105.088 680.071 105.088 769.558 14.4075Z" stroke="white" strokeWidth="1.2812" strokeMiterlimit="10"/>
<path opacity="0.8" d="M758.648 3.35241C842.11 -81.2222 842.11 -218.345 758.648 -302.919C675.186 -387.494 539.868 -387.494 456.406 -302.919C372.944 -218.345 372.944 -81.2222 456.406 3.35237C539.868 87.9269 675.186 87.927 758.648 3.35241Z" stroke="white" strokeWidth="1.4375" strokeMiterlimit="10"/>
<path opacity="0.8" d="M747.738 -7.70268C825.175 -86.1717 825.175 -213.395 747.738 -291.864C670.302 -370.333 544.752 -370.333 467.315 -291.864C389.879 -213.395 389.879 -86.1717 467.315 -7.70266C544.752 70.7664 670.302 70.7664 747.738 -7.70268Z" stroke="white" strokeWidth="1.5938" strokeMiterlimit="10"/>
<path opacity="0.8" d="M788.091 -120.223C804.179 -221.251 736.399 -316.367 636.7 -332.669C537.001 -348.972 443.136 -280.288 427.048 -179.259C410.96 -78.2308 478.741 16.8847 578.44 33.1873C678.139 49.4898 772.003 -19.1942 788.091 -120.223Z" stroke="white" strokeWidth="1.75" strokeMiterlimit="10"/>
<path opacity="0.8" d="M607.53 19.8778C700.001 19.8778 774.963 -56.0841 774.963 -149.788C774.963 -243.492 700.001 -319.454 607.53 -319.454C515.059 -319.454 440.096 -243.492 440.096 -149.788C440.096 -56.0841 515.059 19.8778 607.53 19.8778Z" stroke="white" strokeWidth="1.9062" strokeMiterlimit="10"/>
<path opacity="0.8" d="M715.01 -40.8679C774.371 -101.02 774.371 -198.547 715.01 -258.699C655.649 -318.851 559.405 -318.851 500.044 -258.699C440.683 -198.547 440.683 -101.02 500.044 -40.8679C559.405 19.2845 655.649 19.2846 715.01 -40.8679Z" stroke="white" strokeWidth="2.0625" strokeMiterlimit="10"/>
<path opacity="0.8" d="M704.085 -51.9385C757.412 -105.977 757.412 -193.59 704.085 -247.628C650.757 -301.667 564.297 -301.667 510.969 -247.628C457.642 -193.59 457.642 -105.977 510.969 -51.9385C564.297 2.09984 650.757 2.09983 704.085 -51.9385Z" stroke="white" strokeWidth="2.2188" strokeMiterlimit="10"/>
<path opacity="0.8" d="M693.175 -62.9936C740.477 -110.926 740.477 -188.641 693.175 -236.573C645.873 -284.506 569.181 -284.506 521.879 -236.573C474.577 -188.641 474.577 -110.926 521.879 -62.9935C569.181 -15.0608 645.873 -15.0608 693.175 -62.9936Z" stroke="white" strokeWidth="2.375" strokeMiterlimit="10"/>
<path opacity="0.8" d="M682.265 -74.0486C723.542 -115.876 723.542 -183.691 682.265 -225.518C640.988 -267.346 574.065 -267.346 532.788 -225.518C491.512 -183.691 491.512 -115.876 532.788 -74.0486C574.065 -32.2214 640.988 -32.2213 682.265 -74.0486Z" stroke="white" strokeWidth="2.5312" strokeMiterlimit="10"/>
<g opacity="0.79">
<path opacity="0.79" d="M1089.39 553.945C1167.61 474.587 1167.61 345.923 1089.39 266.566C1011.17 187.208 884.346 187.208 806.126 266.566C727.905 345.923 727.905 474.587 806.126 553.945C884.346 633.302 1011.17 633.302 1089.39 553.945Z" stroke="white" strokeWidth="0.5" strokeMiterlimit="10"/>
<path opacity="0.79" d="M1079.66 543.741C1152.41 470.019 1152.41 350.492 1079.66 276.769C1006.91 203.047 888.952 203.047 816.2 276.769C743.448 350.491 743.448 470.019 816.2 543.741C888.952 617.463 1006.91 617.463 1079.66 543.741Z" stroke="white" strokeWidth="0.7273" strokeMiterlimit="10"/>
<path opacity="0.79" d="M947.938 584.718C1043.03 584.718 1120.11 506.607 1120.11 410.252C1120.11 313.897 1043.03 235.786 947.938 235.786C852.851 235.786 775.767 313.897 775.767 410.252C775.767 506.607 852.851 584.718 947.938 584.718Z" stroke="white" strokeWidth="0.9545" strokeMiterlimit="10"/>
<path opacity="0.79" d="M947.938 570.427C1035.24 570.427 1106.01 498.714 1106.01 410.252C1106.01 321.79 1035.24 250.077 947.938 250.077C860.64 250.077 789.871 321.79 789.871 410.252C789.871 498.714 860.64 570.427 947.938 570.427Z" stroke="white" strokeWidth="1.1818" strokeMiterlimit="10"/>
<path opacity="0.79" d="M947.938 556.114C1027.44 556.114 1091.88 490.81 1091.88 410.252C1091.88 329.695 1027.44 264.39 947.938 264.39C868.441 264.39 803.995 329.695 803.995 410.252C803.995 490.81 868.441 556.114 947.938 556.114Z" stroke="white" strokeWidth="1.4091" strokeMiterlimit="10"/>
<path opacity="0.79" d="M947.938 541.801C1019.63 541.801 1077.76 482.905 1077.76 410.252C1077.76 337.6 1019.63 278.703 947.938 278.703C876.242 278.703 818.12 337.6 818.12 410.252C818.12 482.905 876.242 541.801 947.938 541.801Z" stroke="white" strokeWidth="1.6364" strokeMiterlimit="10"/>
<path opacity="0.79" d="M947.938 527.488C1011.83 527.488 1063.63 475 1063.63 410.252C1063.63 345.505 1011.83 293.017 947.938 293.017C884.043 293.017 832.245 345.505 832.245 410.252C832.245 475 884.043 527.488 947.938 527.488Z" stroke="white" strokeWidth="1.8636" strokeMiterlimit="10"/>
<path opacity="0.79" d="M947.938 513.175C1004.03 513.175 1049.51 467.095 1049.51 410.252C1049.51 353.41 1004.03 307.33 947.938 307.33C891.844 307.33 846.37 353.41 846.37 410.252C846.37 467.095 891.844 513.175 947.938 513.175Z" stroke="white" strokeWidth="2.0909" strokeMiterlimit="10"/>
<path opacity="0.79" d="M947.938 498.862C996.232 498.862 1035.38 459.19 1035.38 410.252C1035.38 361.315 996.232 321.643 947.938 321.643C899.644 321.643 860.495 361.315 860.495 410.252C860.495 459.19 899.644 498.862 947.938 498.862Z" stroke="white" strokeWidth="2.3182" strokeMiterlimit="10"/>
<path opacity="0.79" d="M947.938 484.548C988.431 484.548 1021.26 451.285 1021.26 410.252C1021.26 369.22 988.431 335.956 947.938 335.956C907.445 335.956 874.619 369.22 874.619 410.252C874.619 451.285 907.445 484.548 947.938 484.548Z" stroke="white" strokeWidth="2.5454" strokeMiterlimit="10"/>
<path opacity="0.79" d="M947.938 470.235C980.63 470.235 1007.13 443.38 1007.13 410.252C1007.13 377.125 980.63 350.269 947.938 350.269C915.246 350.269 888.744 377.125 888.744 410.252C888.744 443.38 915.246 470.235 947.938 470.235Z" stroke="white" strokeWidth="2.7727" strokeMiterlimit="10"/>
<path opacity="0.79" d="M947.938 455.922C972.829 455.922 993.007 435.475 993.007 410.252C993.007 385.029 972.829 364.582 947.938 364.582C923.047 364.582 902.869 385.029 902.869 410.252C902.869 435.475 923.047 455.922 947.938 455.922Z" stroke="white" strokeWidth="3" strokeMiterlimit="10"/>
</g>
<g opacity="0.89">
<g opacity="0.89">
<path opacity="0.89" d="M363.04 498.487C460.131 498.487 538.84 418.73 538.84 320.344C538.84 221.958 460.131 142.2 363.04 142.2C265.948 142.2 187.24 221.958 187.24 320.344C187.24 418.73 265.948 498.487 363.04 498.487Z" stroke="white" strokeWidth="0.8127" strokeLinecap="round" strokeLinejoin="round"/>
</g>
<g opacity="0.89">
<path opacity="0.89" d="M363.04 485.495C453.051 485.495 526.019 411.554 526.019 320.344C526.019 229.133 453.051 155.192 363.04 155.192C273.029 155.192 200.061 229.133 200.061 320.344C200.061 411.554 273.029 485.495 363.04 485.495Z" stroke="white" strokeWidth="0.9493" strokeLinecap="round" strokeLinejoin="round"/>
</g>
<g opacity="0.89">
<path opacity="0.89" d="M363.04 472.503C445.97 472.503 513.198 404.379 513.198 320.344C513.198 236.308 445.97 168.184 363.04 168.184C280.11 168.184 212.882 236.308 212.882 320.344C212.882 404.379 280.11 472.503 363.04 472.503Z" stroke="white" strokeWidth="1.0859" strokeLinecap="round" strokeLinejoin="round"/>
</g>
<g opacity="0.89">
<path opacity="0.89" d="M363.04 459.511C438.889 459.511 500.377 397.204 500.377 320.344C500.377 243.484 438.889 181.176 363.04 181.176C287.191 181.176 225.703 243.484 225.703 320.344C225.703 397.204 287.191 459.511 363.04 459.511Z" stroke="white" strokeWidth="1.2225" strokeLinecap="round" strokeLinejoin="round"/>
</g>
<g opacity="0.89">
<path opacity="0.89" d="M363.04 446.52C431.808 446.52 487.556 390.029 487.556 320.344C487.556 250.659 431.808 194.168 363.04 194.168C294.272 194.168 238.524 250.659 238.524 320.344C238.524 390.029 294.272 446.52 363.04 446.52Z" stroke="white" strokeWidth="1.3591" strokeLinecap="round" strokeLinejoin="round"/>
</g>
<g opacity="0.89">
<path opacity="0.89" d="M363.04 433.528C424.727 433.528 474.735 382.854 474.735 320.344C474.735 257.834 424.727 207.16 363.04 207.16C301.353 207.16 251.345 257.834 251.345 320.344C251.345 382.854 301.353 433.528 363.04 433.528Z" stroke="white" strokeWidth="1.4956" strokeLinecap="round" strokeLinejoin="round"/>
</g>
<g opacity="0.89">
<path opacity="0.89" d="M363.04 420.536C417.646 420.536 461.914 375.678 461.914 320.344C461.914 265.009 417.646 220.152 363.04 220.152C308.434 220.152 264.166 265.009 264.166 320.344C264.166 375.678 308.434 420.536 363.04 420.536Z" stroke="white" strokeWidth="1.6322" strokeLinecap="round" strokeLinejoin="round"/>
</g>
<g opacity="0.89">
<path opacity="0.89" d="M363.04 407.544C410.566 407.544 449.093 368.503 449.093 320.344C449.093 272.185 410.566 233.144 363.04 233.144C315.514 233.144 276.987 272.185 276.987 320.344C276.987 368.503 315.514 407.544 363.04 407.544Z" stroke="white" strokeWidth="1.7688" strokeLinecap="round" strokeLinejoin="round"/>
</g>
<g opacity="0.89">
<path opacity="0.89" d="M363.04 394.574C403.497 394.574 436.293 361.34 436.293 320.344C436.293 279.348 403.497 246.114 363.04 246.114C322.583 246.114 289.786 279.348 289.786 320.344C289.786 361.34 322.583 394.574 363.04 394.574Z" stroke="white" strokeWidth="1.9054" strokeLinecap="round" strokeLinejoin="round"/>
</g>
<g opacity="0.89">
<path opacity="0.89" d="M363.04 381.582C396.416 381.582 423.472 354.165 423.472 320.344C423.472 286.523 396.416 259.106 363.04 259.106C329.664 259.106 302.607 286.523 302.607 320.344C302.607 354.165 329.664 381.582 363.04 381.582Z" stroke="white" strokeWidth="2.042" strokeLinecap="round" strokeLinejoin="round"/>
</g>
<g opacity="0.89">
<path opacity="0.89" d="M363.04 368.59C389.335 368.59 410.652 346.99 410.652 320.344C410.652 293.698 389.335 272.098 363.04 272.098C336.745 272.098 315.428 293.698 315.428 320.344C315.428 346.99 336.745 368.59 363.04 368.59Z" stroke="white" strokeWidth="2.1786" strokeLinecap="round" strokeLinejoin="round"/>
</g>
<g opacity="0.89">
<path opacity="0.89" d="M363.04 355.598C382.254 355.598 397.831 339.814 397.831 320.344C397.831 300.873 382.254 285.089 363.04 285.089C343.826 285.089 328.25 300.873 328.25 320.344C328.25 339.814 343.826 355.598 363.04 355.598Z" stroke="white" strokeWidth="2.3152" strokeLinecap="round" strokeLinejoin="round"/>
</g>
</g>
<g opacity="0.77">
<g opacity="0.77">
<path opacity="0.77" d="M565.894 430.577L262.754 737.759" stroke="white" strokeWidth="2" strokeMiterlimit="10"/>
<path opacity="0.77" d="M583.322 430.577L280.182 737.759" stroke="white" strokeWidth="2" strokeMiterlimit="10"/>
<path opacity="0.77" d="M600.728 430.577L297.588 737.759" stroke="white" strokeWidth="2" strokeMiterlimit="10"/>
<path opacity="0.77" d="M618.156 430.577L315.016 737.759" stroke="white" strokeWidth="2" strokeMiterlimit="10"/>
<path opacity="0.77" d="M635.584 430.577L332.443 737.759" stroke="white" strokeWidth="2" strokeMiterlimit="10"/>
<path opacity="0.77" d="M653.012 430.577L349.871 737.759" stroke="white" strokeWidth="2" strokeMiterlimit="10"/>
<path opacity="0.77" d="M670.418 430.577L367.278 737.759" stroke="white" strokeWidth="2" strokeMiterlimit="10"/>
<path opacity="0.77" d="M687.846 430.577L384.706 737.759" stroke="white" strokeWidth="2" strokeMiterlimit="10"/>
<path opacity="0.77" d="M705.274 430.577L402.133 737.759" stroke="white" strokeWidth="2" strokeMiterlimit="10"/>
<path opacity="0.77" d="M722.701 430.577L419.561 737.759" stroke="white" strokeWidth="2" strokeMiterlimit="10"/>
<path opacity="0.77" d="M740.108 430.577L436.967 737.759" stroke="white" strokeWidth="2" strokeMiterlimit="10"/>
<path opacity="0.77" d="M757.536 430.577L454.395 737.759" stroke="white" strokeWidth="2" strokeMiterlimit="10"/>
<path opacity="0.77" d="M774.963 430.577L471.823 737.759" stroke="white" strokeWidth="2" strokeMiterlimit="10"/>
<path opacity="0.77" d="M792.369 430.577L489.229 737.759" stroke="white" strokeWidth="2" strokeMiterlimit="10"/>
<path opacity="0.77" d="M809.797 430.577L506.657 737.759" stroke="white" strokeWidth="2" strokeMiterlimit="10"/>
<path opacity="0.77" d="M827.225 430.577L524.085 737.759" stroke="white" strokeWidth="2" strokeMiterlimit="10"/>
<path opacity="0.77" d="M844.653 430.577L541.513 737.759" stroke="white" strokeWidth="2" strokeMiterlimit="10"/>
<path opacity="0.77" d="M862.059 430.577L558.919 737.759" stroke="white" strokeWidth="2" strokeMiterlimit="10"/>
<path opacity="0.77" d="M879.487 430.577L576.347 737.759" stroke="white" strokeWidth="2" strokeMiterlimit="10"/>
<path opacity="0.77" d="M896.915 430.577L593.775 737.759" stroke="white" strokeWidth="2" strokeMiterlimit="10"/>
<path opacity="0.77" d="M914.321 430.577L611.181 737.759" stroke="white" strokeWidth="2" strokeMiterlimit="10"/>
<path opacity="0.77" d="M931.749 430.577L628.608 737.759" stroke="white" strokeWidth="2" strokeMiterlimit="10"/>
<path opacity="0.77" d="M949.177 430.577L646.036 737.759" stroke="white" strokeWidth="2" strokeMiterlimit="10"/>
<path opacity="0.77" d="M966.605 430.577L663.464 737.759" stroke="white" strokeWidth="2" strokeMiterlimit="10"/>
<path opacity="0.77" d="M984.011 430.577L680.87 737.759" stroke="white" strokeWidth="2" strokeMiterlimit="10"/>
<path opacity="0.77" d="M1001.44 430.577L698.298 737.759" stroke="white" strokeWidth="2" strokeMiterlimit="10"/>
<path opacity="0.77" d="M1018.87 430.577L715.726 737.759" stroke="white" strokeWidth="2" strokeMiterlimit="10"/>
<path opacity="0.77" d="M1036.29 430.577L733.154 737.759" stroke="white" strokeWidth="2" strokeMiterlimit="10"/>
<path opacity="0.77" d="M1053.7 430.577L750.56 737.759" stroke="white" strokeWidth="2" strokeMiterlimit="10"/>
<path opacity="0.77" d="M1071.13 430.577L767.988 737.759" stroke="white" strokeWidth="2" strokeMiterlimit="10"/>
</g>
</g>
<g opacity="0.72">
<path opacity="0.5" d="M-64.6723 267.281L-405 613.344L-64.6723 959.407L275.655 613.344L-64.6723 267.281Z" stroke="white" strokeWidth="50" strokeMiterlimit="10"/>
<path opacity="0.5" d="M785.767 742.923L444.65 1088.59L785.767 1434.25L1126.88 1088.59L785.767 742.923Z" stroke="white" strokeWidth="30" strokeMiterlimit="10"/>
</g>
<path opacity="0.5" d="M144.083 644.922C176.484 677.754 176.484 730.999 144.083 763.853L-216.99 1129.74C-249.391 1162.57 -301.935 1162.57 -334.357 1129.74C-366.757 1096.91 -366.757 1043.66 -334.357 1010.81L26.7171 644.922C59.139 612.089 111.683 612.089 144.083 644.922Z" fill="url(#paint0_linear)"/>
<path opacity="0.5" d="M522.672 611.451C557.897 647.146 557.897 704.993 522.672 740.687L150.45 1117.85C115.225 1153.54 58.1394 1153.54 22.9142 1117.85C-12.3109 1082.15 -12.3109 1024.31 22.9142 988.613L395.114 611.451C430.339 575.756 487.447 575.756 522.672 611.451Z" fill="url(#paint1_linear)"/>
<path opacity="0.5" d="M509.134 859.751C525.91 876.75 525.91 904.298 509.134 921.275L340.419 1092.24C323.643 1109.24 296.458 1109.24 279.704 1092.24C262.928 1075.24 262.928 1047.69 279.704 1030.72L448.419 859.751C465.195 842.773 492.38 842.773 509.134 859.751Z" fill="url(#paint2_linear)"/>
<path opacity="0.5" d="M370.82 768.257C393.245 791.004 393.245 827.866 370.82 850.59L35.5397 1190.34C13.0921 1213.09 -23.2848 1213.09 -45.7106 1190.34C-68.1365 1167.59 -68.1365 1130.73 -45.7106 1108.01L289.569 768.257C311.995 745.51 348.372 745.51 370.82 768.257Z" fill="url(#paint3_linear)"/>
<path opacity="0.49" d="M329.032 89.6821C333.928 89.6821 337.898 85.6597 337.898 80.6979C337.898 75.736 333.928 71.7136 329.032 71.7136C324.135 71.7136 320.166 75.736 320.166 80.6979C320.166 85.6597 324.135 89.6821 329.032 89.6821Z" stroke="white" strokeWidth="2" strokeMiterlimit="10" strokeLinecap="round" strokeLinejoin="round"/>
<path opacity="0.49" d="M935.617 690.746C935.617 695.7 931.64 699.73 926.751 699.73C921.861 699.73 917.885 695.7 917.885 690.746C917.885 685.791 921.861 681.762 926.751 681.762C931.64 681.762 935.617 685.791 935.617 690.746Z" stroke="white" strokeWidth="2" strokeMiterlimit="10" strokeLinecap="round" strokeLinejoin="round"/>
<path opacity="0.49" d="M658.379 246.884C658.379 251.839 654.402 255.869 649.513 255.869C644.624 255.869 640.647 251.839 640.647 246.884C640.647 241.93 644.624 237.9 649.513 237.9C654.424 237.9 658.379 241.908 658.379 246.884Z" stroke="white" strokeWidth="2" strokeMiterlimit="10" strokeLinecap="round" strokeLinejoin="round"/>
<path opacity="0.49" d="M35.2355 539.599C35.2355 544.554 31.2588 548.583 26.3695 548.583C21.4801 548.583 17.5034 544.554 17.5034 539.599C17.5034 534.645 21.4801 530.615 26.3695 530.615C31.2806 530.615 35.2355 534.645 35.2355 539.599Z" stroke="white" strokeWidth="2" strokeMiterlimit="10" strokeLinecap="round" strokeLinejoin="round"/>
<path opacity="0.49" d="M124.982 276.326C124.982 281.28 121.006 285.31 116.116 285.31C111.227 285.31 107.25 281.28 107.25 276.326C107.25 271.371 111.227 267.341 116.116 267.341C121.006 267.341 124.982 271.371 124.982 276.326Z" stroke="white" strokeWidth="2" strokeMiterlimit="10" strokeLinecap="round" strokeLinejoin="round"/>
<g opacity="0.49">
<path opacity="0.49" d="M823.879 157.659V173.381" stroke="white" strokeWidth="2" strokeMiterlimit="10" strokeLinecap="round" strokeLinejoin="round"/>
<path opacity="0.49" d="M831.636 165.52H816.143" stroke="white" strokeWidth="2" strokeMiterlimit="10" strokeLinecap="round" strokeLinejoin="round"/>
</g>
<g opacity="0.49">
<path opacity="0.49" d="M382.206 540.656V556.357" stroke="white" strokeWidth="2" strokeMiterlimit="10" strokeLinecap="round" strokeLinejoin="round"/>
<path opacity="0.49" d="M389.964 548.495H374.47" stroke="white" strokeWidth="2" strokeMiterlimit="10" strokeLinecap="round" strokeLinejoin="round"/>
</g>
<path opacity="0.49" d="M1135.47 878.534H1119.98" stroke="white" strokeWidth="2" strokeMiterlimit="10" strokeLinecap="round" strokeLinejoin="round"/>
<g opacity="0.49">
<path opacity="0.49" d="M1080.89 870.695V886.395" stroke="white" strokeWidth="2" strokeMiterlimit="10" strokeLinecap="round" strokeLinejoin="round"/>
<path opacity="0.49" d="M1088.62 878.534H1073.13" stroke="white" strokeWidth="2" strokeMiterlimit="10" strokeLinecap="round" strokeLinejoin="round"/>
</g>
<g opacity="0.49">
<g opacity="0.49">
<path opacity="0.49" d="M124.982 168.25V183.951" stroke="white" strokeWidth="2" strokeMiterlimit="10" strokeLinecap="round" strokeLinejoin="round"/>
<path opacity="0.49" d="M132.718 176.111H117.225" stroke="white" strokeWidth="2" strokeMiterlimit="10" strokeLinecap="round" strokeLinejoin="round"/>
</g>
<g opacity="0.49">
<path opacity="0.49" d="M78.1313 168.25V183.951" stroke="white" strokeWidth="2" strokeMiterlimit="10" strokeLinecap="round" strokeLinejoin="round"/>
<path opacity="0.49" d="M85.8891 176.111H70.3735" stroke="white" strokeWidth="2" strokeMiterlimit="10" strokeLinecap="round" strokeLinejoin="round"/>
</g>
<g opacity="0.49">
<path opacity="0.49" d="M31.2805 168.25V183.951" stroke="white" strokeWidth="2" strokeMiterlimit="10" strokeLinecap="round" strokeLinejoin="round"/>
<path opacity="0.49" d="M39.0383 176.111H23.5444" stroke="white" strokeWidth="2" strokeMiterlimit="10" strokeLinecap="round" strokeLinejoin="round"/>
</g>
</g>
<path opacity="0.49" d="M566.459 495.25L578.52 474.089H554.399L566.459 495.25Z" stroke="white" strokeWidth="2" strokeMiterlimit="10" strokeLinecap="round" strokeLinejoin="round"/>
<path opacity="0.49" d="M547.728 815.843C552.986 810.514 562.2 819.85 567.459 814.521C572.718 809.193 563.504 799.856 568.763 794.527C574.021 789.198 583.235 798.535 588.494 793.206C593.753 787.877 584.539 778.54 589.776 773.211C595.035 767.883 604.249 777.219 609.507 771.89C614.766 766.561 605.552 757.225 610.811 751.874C616.07 746.545 625.284 755.882 630.564 750.553" stroke="white" strokeWidth="2" strokeMiterlimit="10" strokeLinecap="round" strokeLinejoin="round"/>
<path opacity="0.49" d="M1005.78 772.309C1011.04 766.98 1020.26 776.316 1025.52 770.987C1030.78 765.659 1021.56 756.322 1026.82 750.993C1032.08 745.664 1041.29 755.001 1046.55 749.672C1051.81 744.343 1042.6 735.006 1047.83 729.678C1053.09 724.349 1062.31 733.685 1067.56 728.356C1072.82 723.027 1063.61 713.691 1068.87 708.34C1074.13 703.011 1083.34 712.348 1088.62 707.019" stroke="white" strokeWidth="2" strokeMiterlimit="10" strokeLinecap="round" strokeLinejoin="round"/>
<path opacity="0.49" d="M1031.71 167.854C1036.97 162.525 1046.18 171.861 1051.44 166.533C1056.7 161.204 1047.49 151.867 1052.74 146.538C1058 141.209 1067.22 150.546 1072.48 145.217C1077.73 139.888 1068.52 130.552 1073.76 125.223C1079.02 119.894 1088.23 129.23 1093.49 123.901C1098.75 118.573 1089.53 109.236 1094.79 103.885C1100.05 98.5562 1109.27 107.893 1114.55 102.564" stroke="white" strokeWidth="2" strokeMiterlimit="10" strokeLinecap="round" strokeLinejoin="round"/>
<defs>
<linearGradient id="paint0_linear" x1="144.094" y1="644.928" x2="-340.681" y2="1123.32" gradientUnits="userSpaceOnUse">
<stop stopColor="white"/>
<stop offset="1" stopOpacity="0"/>
</linearGradient>
<linearGradient id="paint1_linear" x1="522.662" y1="611.445" x2="16.3038" y2="1111.14" gradientUnits="userSpaceOnUse">
<stop stopColor="white"/>
<stop offset="1" stopOpacity="0"/>
</linearGradient>
<linearGradient id="paint2_linear" x1="509.142" y1="859.756" x2="276.659" y2="1089.18" gradientUnits="userSpaceOnUse">
<stop stopColor="white"/>
<stop offset="1" stopOpacity="0"/>
</linearGradient>
<linearGradient id="paint3_linear" x1="398.465" y1="740.242" x2="208.622" y2="927.587" gradientUnits="userSpaceOnUse">
<stop stopColor="white"/>
<stop offset="1" stopOpacity="0"/>
</linearGradient>
</defs>
</svg>
