<svg width="15" height="21" viewBox="0 0 15 21" fill="none" xmlns="http://www.w3.org/2000/svg">
<path fill-rule="evenodd" clipRule="evenodd" d="M14.7915 14.2028C14.7915 14.9007 14.4478 15.5257 13.9165 15.9007L8.104 20.0257C7.73942 20.2861 7.26025 20.2861 6.89567 20.0257L1.08317 15.9007C0.551916 15.5257 0.208166 14.9007 0.208166 14.2028L0.218583 2.74447C0.218583 1.59863 1.14567 0.661133 2.2915 0.661133L12.7082 0.661133C13.854 0.661133 14.7811 1.59863 14.7811 2.74447L14.7915 14.2028ZM2.29151 3.78613L2.29151 14.2028L7.49984 17.9007L12.7082 14.2028L12.7082 3.78613C12.7082 3.21322 12.2394 2.74447 11.6665 2.74447L3.33317 2.74447C2.76026 2.74447 2.29151 3.21322 2.29151 3.78613Z" fill="#3A405A" fillOpacity="0.9"/>
</svg>
