<svg width="24" height="24" viewBox="0 0 25 25" fill="none" xmlns="http://www.w3.org/2000/svg">
<path fillRule="evenodd" clipRule="evenodd" d="M5 7.29167C5 3.26042 8.26042 0 12.2917 0C16.3229 0 19.5833 3.26042 19.5833 7.29167C19.5833 11.6354 14.9792 17.625 13.0938 19.9063C12.6771 20.4063 11.9167 20.4063 11.5 19.9063C9.60417 17.625 5 11.6354 5 7.29167ZM9.6875 7.29167C9.6875 8.72917 10.8542 9.89584 12.2917 9.89584C13.7292 9.89584 14.8958 8.72917 14.8958 7.29167C14.8958 5.85417 13.7292 4.68751 12.2917 4.68751C10.8542 4.68751 9.6875 5.85417 9.6875 7.29167Z" fill="#3A405A"/>
</svg>
