<svg width="25" height="25" viewBox="0 0 25 25" fill="none" xmlns="http://www.w3.org/2000/svg">
<path d="M24.8653 0.083885C11.3272 -1.39372 2.54634 17.0469 0.456934 24.0503C0.307848 24.55 0.868133 24.7824 1.17838 24.3632C3.30058 21.496 5.17911 19.376 6.23988 18.2376C6.81227 17.6232 7.63326 17.3322 8.47207 17.2947C13.6258 17.0642 15.7564 13.8734 15.7564 13.8734C14.9957 14.1276 12.0867 13.6198 12.0867 13.6198C10.0629 13.3662 12.5819 12.736 12.9559 12.6561C19.267 11.2965 19.6789 8.56056 19.6789 8.56056C18.1609 9.06702 14.7448 8.18122 14.7448 8.18122C20.9434 7.67675 22.0821 4.00644 22.0821 4.00644C20.1847 4.63934 17.8434 4.35383 17.8434 4.35383C22.8727 3.31097 24.8653 0.083885 24.8653 0.083885Z" fill="#D9C8A5"/>
</svg>
