<svg width="50" height="50" viewBox="0 0 50 50" fill="none" xmlns="http://www.w3.org/2000/svg">
<path fill-rule="evenodd" clipRule="evenodd" d="M31.6386 30.1491H33.2844L42.1178 39.0241C42.9719 39.8782 42.9719 41.2741 42.1178 42.1282C41.2636 42.9824 39.8678 42.9824 39.0136 42.1282L30.1594 33.2741V31.6282L29.5969 31.0449C26.6803 33.5449 22.7011 34.8366 18.4719 34.1282C12.6803 33.1491 8.05526 28.3157 7.34693 22.4824C6.26359 13.6699 13.6803 6.25322 22.4928 7.33655C28.3261 8.04488 33.1594 12.6699 34.1386 18.4615C34.8469 22.6907 33.5553 26.6699 31.0553 29.5865L31.6386 30.1491ZM11.4095 20.774C11.4095 25.9615 15.597 30.149 20.7845 30.149C25.972 30.149 30.1595 25.9615 30.1595 20.774C30.1595 15.5865 25.972 11.399 20.7845 11.399C15.597 11.399 11.4095 15.5865 11.4095 20.774Z" fill="#3A405A" fillOpacity="0.54"/>
</svg>
